<?xml version="1.0" encoding="iso-8859-1"?>
<!-- Generator: Adobe Illustrator 16.0.0, SVG Export Plug-In . SVG Version: 6.00 Build 0)  -->
<!DOCTYPE svg PUBLIC "-//W3C//DTD SVG 1.1//EN" "http://www.w3.org/Graphics/SVG/1.1/DTD/svg11.dtd">
<svg version="1.1" id="Capa_1" xmlns="http://www.w3.org/2000/svg" xmlns:xlink="http://www.w3.org/1999/xlink" x="0px" y="0px"
	 width="108.222px" height="108.221px" viewBox="0 0 108.222 108.221" style="enable-background:new 0 0 108.222 108.221;"
	 xml:space="preserve">
<g>
	<g>
		<path d="M106.875,50.01l-0.122-0.118V14.69c0-2.436-1.981-4.419-4.419-4.419h-4.208L98.021,10
			c-0.324-0.954-0.966-1.773-1.808-2.308c-1.085-0.69-2.455-0.873-3.687-0.49l-6.918,2.155c-1.572,0.489-2.838,1.605-3.475,3.064
			c-0.593,1.361-0.58,2.921,0.036,4.279l0.11,0.244l-0.185,0.195c-1.354,1.449-2.957,3.01-4.761,4.642l-0.114,0.104H3.615
			C1.621,21.885,0,23.507,0,25.5v45.521c0,1.994,1.621,3.615,3.615,3.615h10.064l0.092,0.274c1.188,3.523,3.469,7.131,5.174,9.534
			c3.056,5.228,9.707,11.625,10.455,12.338l0.328,0.296l-0.308,4.105l23.601,0.032l1.641-5.279
			c3.875-7.733,3.11-17.796,2.918-19.734c0.019-0.427,0.021-0.791,0.003-1.145l-0.021-0.422h22.112c1.993,0,3.615-1.621,3.615-3.615
			V60.303h20.513c2.438,0,4.419-1.982,4.419-4.419v-2.701C108.222,51.978,107.744,50.852,106.875,50.01z M2.946,55.859
			c0,0.369-0.301,0.67-0.67,0.67s-0.67-0.301-0.67-0.67V40.663c0-0.368,0.301-0.669,0.67-0.669s0.67,0.301,0.67,0.669V55.859z
			 M98.011,14.121h4.724v37.495h-4.724V14.121z M88.604,15.478l-0.652,0.203c-0.818,0.259-1.781-0.102-2.112-0.787
			c-0.159-0.332-0.166-0.699-0.021-1.035c0.168-0.388,0.526-0.691,0.982-0.834l7.374-2.297l0.897,6.571
			c0.051,0.335-0.043,0.677-0.266,0.96c-0.271,0.347-0.708,0.572-1.197,0.619c-0.059,0.006-0.123,0.009-0.188,0.009
			c-0.835,0-1.543-0.531-1.648-1.235l-0.113-0.994c-8.521,11.801-28.149,24.45-29.002,24.995c-0.289,0.186-0.635,0.283-1,0.283
			c-0.493,0-0.957-0.183-1.272-0.501c-0.289-0.292-0.425-0.664-0.383-1.047c0.044-0.396,0.282-0.761,0.653-0.997
			C60.857,39.263,80.298,26.697,88.604,15.478z M94.193,22.449v29.167H89.47V22.449H94.193z M85.933,31.116v20.5h-4.724v-20.5
			H85.933z M77.391,40.12v11.496h-4.724V40.12H77.391z M68.361,44.623v6.993h-4.725v-6.993H68.361z M50.976,94.346l-0.894,2.853
			l-16.314-0.022l0.032-0.433c0.005-0.059,0.008-0.118,0.008-0.184c-0.005-0.866-0.544-1.765-1.602-2.67
			c-0.307-0.29-7.085-6.767-9.837-11.582c-1.815-2.547-6.244-9.654-5.222-12.355c0.126-0.33,0.387-0.789,1.205-0.976
			c0.379-0.138,0.709-0.197,1.032-0.197c1.994,0,3.715,2.276,4.971,3.938c0.922,1.22,1.527,2.021,2.185,2.021
			c0.213,0,0.401-0.082,0.561-0.24c0.454-0.456,0.753-1.642,0.735-5.94c0.049-0.521,0.464-5.146,0.464-19.4
			c0.3-3.217,1.289-3.56,1.701-3.56c0.988,0,2.166,1.439,2.354,2.31c0.012,0.052,0.03,0.099,0.058,0.14l0.052,0.118
			c0.06,0.233,0.126,0.688,0.21,1.429l0.018,0.16c0.178,1.614,0.386,4.12,0.569,6.331l0.02,0.231
			c0.753,9.138,0.875,9.761,1.377,9.91c0.119,0.036,0.269,0.01,0.372-0.07c0.166-0.121,1.574-1.119,3.088-1.119
			c1.408,0,2.51,0.866,3.276,2.573c0.048,0.107,0.14,0.189,0.252,0.227c0.116,0.038,0.237,0.023,0.338-0.033
			c0.011-0.007,1.136-0.642,2.42-0.642c1.612,0,2.769,0.985,3.438,2.928c0.053,0.155,0.194,0.266,0.361,0.28
			c0.025,0.003,2.813,0.265,4.359,2.129c0.804,0.964,1.141,2.208,1.003,3.695c-0.003,0.03-0.003,0.063,0,0.094
			C53.58,76.386,54.831,86.996,50.976,94.346z M76.863,70.62H56.152l-0.119-0.171c-0.133-0.188-0.267-0.362-0.397-0.521
			c-1.467-1.769-3.405-2.652-4.773-3.083L50.72,66.8l-0.079-0.127c-1.973-3.188-5.031-3.532-6.255-3.532
			c-0.317,0-0.641,0.019-0.959,0.057l-0.191,0.021l-0.138-0.135c-1.9-1.868-4.092-2.069-4.946-2.069l-0.455,0.006l-0.033-0.371
			c-0.132-1.452-0.266-3.078-0.383-4.497l-0.033-0.401c-0.18-2.162-0.383-4.609-0.563-6.288l-0.039-0.354
			c-0.11-0.964-0.195-1.508-0.307-1.94l-0.179-0.702l-0.149-0.246c-0.894-2.308-3.25-4.644-6.027-4.644
			c-1.179,0-5.075,0.517-5.697,7.164l-0.021,0.431c0,8.708-0.157,13.788-0.288,16.512l-0.034,0.697l-0.586-0.38
			c-1.946-1.262-4.114-1.57-6.173-0.879c-1.792,0.495-3.174,1.734-3.812,3.406c-0.192,0.511-0.313,1.088-0.359,1.719l-0.026,0.372
			h-5.97V25.903h65.517l-0.891,0.714c-5.119,4.114-10.283,7.72-13.147,9.557c-1.4,0.896-2.306,2.332-2.483,3.94
			c-0.176,1.591,0.378,3.163,1.52,4.313c0.519,0.524,1.138,0.938,1.844,1.234l0.246,0.103v3h-2.861
			c-2.437,0-4.419,1.982-4.419,4.419v2.701c0,2.437,1.982,4.419,4.419,4.419h20.104V70.62H76.863z M104.205,56.118h-47.85v-3.505
			h47.85V56.118z"/>
		<path d="M30.121,36.575c-5.04,0-9.141,4.101-9.141,9.141h1.014c0-4.481,3.646-8.127,8.127-8.127c4.481,0,8.127,3.646,8.127,8.127
			h1.014C39.262,40.675,35.161,36.575,30.121,36.575z"/>
	</g>
</g>
<g>
</g>
<g>
</g>
<g>
</g>
<g>
</g>
<g>
</g>
<g>
</g>
<g>
</g>
<g>
</g>
<g>
</g>
<g>
</g>
<g>
</g>
<g>
</g>
<g>
</g>
<g>
</g>
<g>
</g>
</svg>
